<svg width="35" height="35" viewBox="0 0 35 35" fill="none" xmlns="http://www.w3.org/2000/svg">
<path d="M14.1949 23.8261L9.07382 18.8258C8.75144 18.511 8.75144 18.0005 9.07382 17.6856C9.39654 17.3704 9.91909 17.3704 10.2415 17.6856L14.1949 21.546L24.7634 11.2251C25.0862 10.91 25.6087 10.91 25.9311 11.2251C26.2538 11.5399 26.2538 12.0506 25.9311 12.3654L14.1949 23.8261Z" fill="white"/>
<path d="M17.5019 34.3296V33.5232L17.5007 34.3296C7.8514 34.3296 0.000686281 26.6634 0 17.2406C0 7.81737 7.85071 0.150879 17.5 0.150879C27.1496 0.150879 35 7.81737 35 17.2402C35.0003 26.6634 27.1506 34.3296 17.5019 34.3296ZM17.5 1.76366C8.76107 1.76366 1.65154 8.70636 1.65154 17.2402C1.65222 25.7738 8.76204 32.7165 17.5007 32.7165H17.5019C26.2399 32.7165 33.3488 25.7738 33.3488 17.2402C33.3488 8.70636 26.2389 1.76366 17.5 1.76366Z" fill="white"/>
</svg>
