<svg width="18" height="19" viewBox="0 0 18 19" fill="none" xmlns="http://www.w3.org/2000/svg">
<path fill-rule="evenodd" clip-rule="evenodd" d="M17.4853 0.835989C17.6728 1.02353 17.7782 1.27788 17.7782 1.5431C17.7782 1.80831 17.6728 2.06267 17.4853 2.2502L10.4142 9.32127L17.4853 16.3923C17.6728 16.5799 17.7782 16.8342 17.7782 17.0994C17.7782 17.3647 17.6728 17.619 17.4853 17.8066C17.2977 17.9941 17.0434 18.0994 16.7782 18.0994C16.513 18.0994 16.2586 17.9941 16.0711 17.8066L9 10.7355L1.92893 17.8066C1.7414 17.9941 1.48704 18.0994 1.22183 18.0994C0.956609 18.0994 0.702255 17.9941 0.514719 17.8066C0.327182 17.619 0.221825 17.3647 0.221825 17.0994C0.221825 16.8342 0.327182 16.5799 0.514719 16.3923L7.58579 9.32127L0.514719 2.2502C0.327182 2.06267 0.221825 1.80831 0.221825 1.5431C0.221825 1.27788 0.327182 1.02353 0.514719 0.835989C0.702255 0.648453 0.956609 0.543096 1.22183 0.543096C1.48704 0.543096 1.7414 0.648453 1.92893 0.835989L9 7.90706L16.0711 0.835989C16.2586 0.648453 16.513 0.543096 16.7782 0.543096C17.0434 0.543096 17.2977 0.648453 17.4853 0.835989Z" fill="#0A4B8C"/>
</svg>
